<svg data-v-423bf9ae="" xmlns="http://www.w3.org/2000/svg" viewBox="0 0 566 90" class="iconLeftSlogan"><!----><!----><!----><g data-v-423bf9ae="" id="dfd26889-2f6f-4ff8-bff2-dd19ebff468d" fill="#230A1B" transform="matrix(4.788175319905851,0,0,4.788175319905851,114.33481594077784,-14.316643536926357)"><path d="M4.16 3.59L4.16 3.59L4.16 3.59Q3.32 3.64 2.51 4.17L2.51 4.17L2.51 4.17Q1.71 4.70 1.15 5.38L1.15 5.38L1.15 5.38Q0.59 6.06 0.34 7.12L0.34 7.12L0.34 7.12Q0.09 8.18 0.35 9.45L0.35 9.45L0.35 9.45Q0.60 10.73 1.57 11.63L1.57 11.63L1.57 11.63Q2.53 12.53 3.75 12.67L3.75 12.67L3.75 12.67Q4.97 12.81 5.96 11.95L5.96 11.95L5.97 12.73L7.18 12.11L7.18 6.92L4.56 6.91L3.74 8.05L5.99 8.05L5.99 11.41L5.99 11.41Q4.53 11.97 3.22 11.08L3.22 11.08L3.22 11.08Q1.90 10.19 1.58 8.97L1.58 8.97L1.58 8.97Q1.26 7.75 1.52 6.59L1.52 6.59L1.52 6.59Q1.77 5.43 2.63 4.92L2.63 4.92L2.63 4.92Q3.48 4.40 4.65 4.75L4.65 4.75L4.65 4.75Q5.82 5.11 5.98 6.02L5.98 6.02L7.23 5.26L7.23 5.26Q7.18 4.46 6.55 4.07L6.55 4.07L6.55 4.07Q5.92 3.67 5.47 3.61L5.47 3.61L5.47 3.61Q5.01 3.54 4.16 3.59ZM10.95 6.43L10.95 6.43L10.95 6.43Q10.04 6.36 9.02 6.88L9.02 6.88L9.02 6.88Q8.00 7.40 8.13 8.65L8.13 8.65L9.69 7.95L9.69 7.95Q9.58 7.10 10.32 6.96L10.32 6.96L10.32 6.96Q11.07 6.82 11.48 7.21L11.48 7.21L11.48 7.21Q11.90 7.61 11.84 8.80L11.84 8.80L11.84 8.80Q11.38 8.50 10.76 8.42L10.76 8.42L10.76 8.42Q10.14 8.33 9.13 8.85L9.13 8.85L9.13 8.85Q8.12 9.37 7.87 10.38L7.87 10.38L7.87 10.38Q7.62 11.38 8.40 12.06L8.40 12.06L8.40 12.06Q9.17 12.73 9.90 12.70L9.90 12.70L9.90 12.70Q10.62 12.67 10.99 12.39L10.99 12.39L10.99 12.39Q11.35 12.10 11.86 11.57L11.86 11.57L11.86 11.57Q11.85 12.44 12.06 12.76L12.06 12.76L13.41 12.04L13.41 12.04Q13.07 11.63 13.14 11.02L13.14 11.02L13.14 8.16L13.14 8.16Q13.17 7.49 12.52 6.99L12.52 6.99L12.52 6.99Q11.87 6.50 10.95 6.43ZM11.89 9.32L11.87 9.68L11.87 11.18L11.87 11.18Q10.71 12.11 9.77 11.55L9.77 11.55L9.77 11.55Q8.82 10.99 8.69 10.16L8.69 10.16L8.69 10.16Q8.57 9.34 9.51 9.31L9.51 9.31L9.51 9.31Q10.46 9.28 11.26 10.00L11.26 10.00L11.89 9.32ZM19.52 12.19L19.52 12.19L19.52 6.49L18.20 7.03L18.20 11.16L18.20 11.16Q17.69 11.79 16.73 11.74L16.73 11.74L16.73 11.74Q15.76 11.69 15.68 10.73L15.68 10.73L15.69 6.51L14.39 7.17L14.39 10.96L14.39 10.96Q14.39 11.91 15.05 12.35L15.05 12.35L15.05 12.35Q15.72 12.80 16.44 12.68L16.44 12.68L16.44 12.68Q17.17 12.56 18.26 11.48L18.26 11.48L18.26 13.11L18.26 13.11Q18.30 14.06 17.96 14.39L17.96 14.39L17.96 14.39Q17.62 14.72 16.81 14.63L16.81 14.63L16.81 14.63Q16.00 14.53 15.17 13.36L15.17 13.36L14.31 14.57L14.31 14.57Q16.20 16.19 17.87 15.05L17.87 15.05L17.87 15.05Q19.54 13.90 19.52 12.19ZM22.11 3.55L20.77 4.13L20.78 12.45L20.78 12.45Q21.98 12.74 22.84 12.70L22.84 12.70L22.84 12.70Q23.69 12.67 24.68 11.83L24.68 11.83L24.68 11.83Q25.67 10.99 25.98 10.06L25.98 10.06L25.98 10.06Q26.28 9.13 25.90 7.96L25.90 7.96L25.90 7.96Q25.51 6.79 24.31 6.51L24.31 6.51L24.31 6.51Q23.11 6.23 22.09 7.79L22.09 7.79L22.11 3.55ZM23.54 7.64L23.54 7.64L23.54 7.64Q24.29 7.69 24.78 8.65L24.78 8.65L24.78 8.65Q25.27 9.62 25.02 10.47L25.02 10.47L25.02 10.47Q24.76 11.31 24.03 11.51L24.03 11.51L24.03 11.51Q23.30 11.71 22.09 11.20L22.09 11.20L22.09 8.29L22.09 8.29Q22.78 7.59 23.54 7.64ZM30.07 6.51L30.07 6.51L30.07 6.51Q28.99 6.35 28.05 7.19L28.05 7.19L28.05 7.19Q27.11 8.03 26.85 9.15L26.85 9.15L26.85 9.15Q26.58 10.27 26.93 11.09L26.93 11.09L26.93 11.09Q27.28 11.91 27.86 12.28L27.86 12.28L27.86 12.28Q28.44 12.66 29.24 12.71L29.24 12.71L29.24 12.71Q30.03 12.76 30.80 12.08L30.80 12.08L30.80 12.08Q31.57 11.41 32.03 10.54L32.03 10.54L31.93 10.47L31.93 10.47Q30.88 11.57 29.80 11.52L29.80 11.52L29.80 11.52Q28.72 11.47 28.38 10.85L28.38 10.85L30.32 9.78L30.32 9.78Q31.77 8.81 31.47 7.75L31.47 7.75L31.47 7.75Q31.16 6.68 30.07 6.51ZM27.86 8.16L27.86 8.16L27.86 8.16Q28.10 7.66 28.71 7.40L28.71 7.40L28.71 7.40Q29.32 7.14 29.87 7.68L29.87 7.68L29.87 7.68Q30.41 8.21 30.25 8.90L30.25 8.90L30.25 8.90Q30.08 9.60 28.17 10.57L28.17 10.57L28.17 10.57Q27.86 10.04 27.74 9.35L27.74 9.35L27.74 9.35Q27.62 8.67 27.86 8.16ZM34.46 3.60L33.14 4.16L33.14 12.74L34.46 12.14L34.46 3.60ZM36.72 2.99L35.56 3.96L35.56 3.96Q36.08 4.38 36.13 4.88L36.13 4.88L36.13 4.88Q36.19 5.37 35.46 6.04L35.46 6.04L35.59 6.09L35.59 6.09Q37.02 5.19 37.26 4.75L37.26 4.75L37.26 4.75Q37.50 4.32 37.38 3.91L37.38 3.91L37.38 3.91Q37.26 3.51 37.03 3.26L37.03 3.26L37.03 3.26Q36.80 3.01 36.72 2.99L36.72 2.99ZM40.66 6.48L40.66 6.48L40.66 6.48Q39.96 6.57 39.58 6.79L39.58 6.79L39.58 6.79Q39.21 7.01 38.89 7.38L38.89 7.38L38.89 7.38Q38.58 7.76 38.56 8.38L38.56 8.38L38.56 8.38Q38.55 9.00 39.00 9.39L39.00 9.39L39.00 9.39Q39.44 9.77 40.72 10.21L40.72 10.21L40.72 10.21Q42 10.64 42.13 11.06L42.13 11.06L42.13 11.06Q42.27 11.48 41.95 11.76L41.95 11.76L41.95 11.76Q41.63 12.04 41.05 11.97L41.05 11.97L41.05 11.97Q40.47 11.90 40.04 11.61L40.04 11.61L40.04 11.61Q39.61 11.32 39.33 10.93L39.33 10.93L39.33 10.93Q39.05 10.55 38.99 10.27L38.99 10.27L37.93 11.06L37.93 11.06Q38.16 11.58 38.51 11.93L38.51 11.93L38.51 11.93Q38.86 12.28 39.39 12.50L39.39 12.50L39.39 12.50Q39.92 12.71 40.66 12.75L40.66 12.75L40.66 12.75Q41.41 12.78 41.98 12.37L41.98 12.37L41.98 12.37Q42.56 11.96 42.87 11.48L42.87 11.48L42.87 11.48Q43.18 11.01 43.16 10.52L43.16 10.52L43.16 10.52Q43.13 10.04 42.72 9.63L42.72 9.63L42.72 9.63Q42.31 9.21 40.94 8.75L40.94 8.75L40.94 8.75Q39.58 8.29 39.52 7.87L39.52 7.87L39.52 7.87Q39.46 7.44 40.00 7.29L40.00 7.29L40.00 7.29Q40.54 7.14 41.28 7.53L41.28 7.53L41.28 7.53Q42.02 7.93 41.97 8.16L41.97 8.16L42.83 7.25L42.83 7.25Q42.57 6.82 41.96 6.60L41.96 6.60L41.96 6.60Q41.36 6.39 40.66 6.48ZM48.30 3.67L47.30 4.48L47.30 12.71L52.04 12.70L52.96 11.15L52.96 11.15Q51.95 11.64 48.56 11.47L48.56 11.47L48.56 8.38L50.93 8.38L51.66 7.25L48.60 7.25L48.60 4.79L51.76 4.79L52.61 3.66L48.30 3.67ZM55.01 3.60L53.69 4.16L53.69 12.74L55.01 12.14L55.01 3.60ZM59.46 6.51L59.46 6.51L59.46 6.51Q58.37 6.35 57.43 7.19L57.43 7.19L57.43 7.19Q56.49 8.03 56.23 9.15L56.23 9.15L56.23 9.15Q55.97 10.27 56.31 11.09L56.31 11.09L56.31 11.09Q56.66 11.91 57.24 12.28L57.24 12.28L57.24 12.28Q57.83 12.66 58.62 12.71L58.62 12.71L58.62 12.71Q59.41 12.76 60.18 12.08L60.18 12.08L60.18 12.08Q60.95 11.41 61.41 10.54L61.41 10.54L61.31 10.47L61.31 10.47Q60.26 11.57 59.18 11.52L59.18 11.52L59.18 11.52Q58.11 11.47 57.76 10.85L57.76 10.85L59.71 9.78L59.71 9.78Q61.15 8.81 60.85 7.75L60.85 7.75L60.85 7.75Q60.54 6.68 59.46 6.51ZM57.24 8.16L57.24 8.16L57.24 8.16Q57.48 7.66 58.09 7.40L58.09 7.40L58.09 7.40Q58.70 7.14 59.25 7.68L59.25 7.68L59.25 7.68Q59.79 8.21 59.63 8.90L59.63 8.90L59.63 8.90Q59.46 9.60 57.55 10.57L57.55 10.57L57.55 10.57Q57.24 10.04 57.12 9.35L57.12 9.35L57.12 9.35Q57.00 8.67 57.24 8.16ZM63.68 6.35L62.34 6.93L62.34 12.73L63.71 12.13L63.71 8.05L63.71 8.05Q64.22 7.42 64.98 7.48L64.98 7.48L64.98 7.48Q65.74 7.53 65.83 8.55L65.83 8.55L65.83 12.70L67.18 12.11L67.18 8.11L67.18 8.11Q67.72 7.36 68.49 7.50L68.49 7.50L68.49 7.50Q69.26 7.64 69.23 9.03L69.23 9.03L69.23 12.70L70.60 12.08L70.60 7.99L70.60 7.99Q70.43 6.51 69.13 6.53L69.13 6.53L69.13 6.53Q67.82 6.56 67.09 7.73L67.09 7.73L67.09 7.73Q66.81 6.56 65.65 6.54L65.65 6.54L65.65 6.54Q64.50 6.51 63.68 7.73L63.68 7.73L63.68 6.35ZM74.90 6.51L74.90 6.51L74.90 6.51Q73.81 6.35 72.87 7.19L72.87 7.19L72.87 7.19Q71.93 8.03 71.67 9.15L71.67 9.15L71.67 9.15Q71.41 10.27 71.76 11.09L71.76 11.09L71.76 11.09Q72.11 11.91 72.69 12.28L72.69 12.28L72.69 12.28Q73.27 12.66 74.06 12.71L74.06 12.71L74.06 12.71Q74.85 12.76 75.62 12.08L75.62 12.08L75.62 12.08Q76.39 11.41 76.85 10.54L76.85 10.54L76.75 10.47L76.75 10.47Q75.70 11.57 74.62 11.52L74.62 11.52L74.62 11.52Q73.55 11.47 73.21 10.85L73.21 10.85L75.15 9.78L75.15 9.78Q76.60 8.81 76.29 7.75L76.29 7.75L76.29 7.75Q75.98 6.68 74.90 6.51ZM72.68 8.16L72.68 8.16L72.68 8.16Q72.92 7.66 73.53 7.40L73.53 7.40L73.53 7.40Q74.14 7.14 74.69 7.68L74.69 7.68L74.69 7.68Q75.24 8.21 75.07 8.90L75.07 8.90L75.07 8.90Q74.90 9.60 72.99 10.57L72.99 10.57L72.99 10.57Q72.69 10.04 72.56 9.35L72.56 9.35L72.56 9.35Q72.44 8.67 72.68 8.16ZM78.89 6.38L77.58 6.89L77.58 12.73L78.96 12.15L78.96 8.05L78.96 8.05Q79.62 7.22 80.60 7.37L80.60 7.37L80.60 7.37Q81.59 7.53 81.55 8.48L81.55 8.48L81.55 12.77L82.89 12.18L82.89 8.25L82.89 8.25Q82.98 7.35 82.32 6.87L82.32 6.87L82.32 6.87Q81.66 6.40 80.69 6.56L80.69 6.56L80.69 6.56Q79.73 6.72 78.89 7.73L78.89 7.73L78.89 6.38ZM86.03 4.44L84.79 4.94L84.79 6.84L84.50 6.84L83.35 7.86L84.79 7.86L84.71 10.19L84.71 10.19Q84.72 11.87 85.60 12.42L85.60 12.42L85.60 12.42Q86.47 12.97 87.37 12.56L87.37 12.56L87.37 12.56Q88.26 12.15 88.58 11.09L88.58 11.09L88.48 10.93L88.48 10.93Q87.59 12.06 86.71 11.64L86.71 11.64L86.71 11.64Q85.84 11.22 85.99 9.78L85.99 9.78L86.04 7.85L86.88 7.85L88.95 6.79L86.02 6.79L86.03 4.44ZM91.76 6.48L91.76 6.48L91.76 6.48Q91.05 6.57 90.68 6.79L90.68 6.79L90.68 6.79Q90.31 7.01 89.99 7.38L89.99 7.38L89.99 7.38Q89.67 7.76 89.66 8.38L89.66 8.38L89.66 8.38Q89.65 9.00 90.09 9.39L90.09 9.39L90.09 9.39Q90.54 9.77 91.82 10.21L91.82 10.21L91.82 10.21Q93.10 10.64 93.23 11.06L93.23 11.06L93.23 11.06Q93.37 11.48 93.05 11.76L93.05 11.76L93.05 11.76Q92.73 12.04 92.15 11.97L92.15 11.97L92.15 11.97Q91.57 11.90 91.14 11.61L91.14 11.61L91.14 11.61Q90.71 11.32 90.43 10.93L90.43 10.93L90.43 10.93Q90.15 10.55 90.08 10.27L90.08 10.27L89.02 11.06L89.02 11.06Q89.26 11.58 89.61 11.93L89.61 11.93L89.61 11.93Q89.95 12.28 90.48 12.50L90.48 12.50L90.48 12.50Q91.01 12.71 91.76 12.75L91.76 12.75L91.76 12.75Q92.50 12.78 93.08 12.37L93.08 12.37L93.08 12.37Q93.66 11.96 93.97 11.48L93.97 11.48L93.97 11.48Q94.27 11.01 94.25 10.52L94.25 10.52L94.25 10.52Q94.23 10.04 93.82 9.63L93.82 9.63L93.82 9.63Q93.41 9.21 92.04 8.75L92.04 8.75L92.04 8.75Q90.68 8.29 90.62 7.87L90.62 7.87L90.62 7.87Q90.56 7.44 91.10 7.29L91.10 7.29L91.10 7.29Q91.64 7.14 92.38 7.53L92.38 7.53L92.38 7.53Q93.12 7.93 93.07 8.16L93.07 8.16L93.93 7.25L93.93 7.25Q93.67 6.82 93.06 6.60L93.06 6.60L93.06 6.60Q92.46 6.39 91.76 6.48Z"></path></g><!----><g data-v-423bf9ae="" id="6e4a9916-947d-4ee4-95d8-24683dd9ad31" transform="matrix(1.074126656560793,0,0,1.074126656560793,-6.132760422319656,-8.608654009822082)" stroke="none" fill="#1E0B36"><path d="M67.713 67.709L37.628 88.188 10.124 56.141l-1.835-2.138L6 55.682l29.338 34.182.38.442L37.17 92l2.29-1.677 30.089-20.476 24.763-19.674-1.834-2.134z"></path><path d="M66.416 63.372L38.913 31.327l24.253-19.302L90.67 44.07 66.416 63.372zm-28.182 19.08L10.73 50.405l25.893-17.402 27.501 32.048-25.89 17.401zM37.08 29.191L6.608 49.944l-.002.002 31.168 36.32 28.185-19.08 2.289-1.677L94.794 44.53 63.623 8.211 37.08 29.191z"></path><path d="M66.901 57.299l17.737-14.164-.762-.765-17.737 14.161zM65.249 55.373l17.739-14.159-.765-.771-17.737 14.165zM63.599 53.449l17.734-14.164-.763-.769L62.835 52.68zM61.944 51.523l17.737-14.165-.767-.769L61.18 50.753zM59.859 31.767l-8.881 7.098.778.787 8.879-7.101zM58.176 29.807l-8.877 7.101.778.788 8.875-7.105zM56.498 27.854l-8.88 7.098.78.786 8.877-7.101zM52.938 41.091l7.336 8.544 8.788-7.203-7.335-8.547zM38.506 76.248l18.987-12.701-.643-.872-18.988 12.702zM36.836 74.305l18.989-12.702-.641-.873-18.992 12.703zM35.167 72.36l18.988-12.702-.645-.877-18.991 12.702zM33.496 70.412l18.987-12.703-.643-.87-18.987 12.702zM31.826 68.469l18.987-12.702-.641-.874-18.987 12.704zM30.157 66.524l18.99-12.702-.643-.874-18.995 12.699zM28.486 64.576l18.99-12.703-.646-.87-18.987 12.702zM26.817 62.633l18.989-12.704-.642-.87-18.991 12.7zM34.631 54.345l9.509-6.361-.646-.872-9.514 6.359zM32.96 52.396l9.511-6.356-.649-.877-9.511 6.363zM31.291 50.452l9.507-6.359-.646-.872-9.507 6.363zM29.621 48.507l9.507-6.359-.644-.872-9.509 6.364z"></path></g><!----><g data-v-423bf9ae="" id="ed333d0e-3558-4b63-9ce0-56fc580bacb2" fill="#230A1B" transform="matrix(9.134591299249845,0,0,9.134591299249845,113.38966551909186,28.30296856982511)"><path d="M4.16 3.59L4.16 3.59L4.16 3.59Q3.32 3.64 2.51 4.17L2.51 4.17L2.51 4.17Q1.71 4.70 1.15 5.38L1.15 5.38L1.15 5.38Q0.59 6.06 0.34 7.12L0.34 7.12L0.34 7.12Q0.09 8.18 0.35 9.45L0.35 9.45L0.35 9.45Q0.60 10.73 1.57 11.63L1.57 11.63L1.57 11.63Q2.53 12.53 3.75 12.67L3.75 12.67L3.75 12.67Q4.97 12.81 5.96 11.95L5.96 11.95L5.97 12.73L7.18 12.11L7.18 6.92L4.56 6.91L3.74 8.05L5.99 8.05L5.99 11.41L5.99 11.41Q4.53 11.97 3.22 11.08L3.22 11.08L3.22 11.08Q1.90 10.19 1.58 8.97L1.58 8.97L1.58 8.97Q1.26 7.75 1.52 6.59L1.52 6.59L1.52 6.59Q1.77 5.43 2.63 4.92L2.63 4.92L2.63 4.92Q3.48 4.40 4.65 4.75L4.65 4.75L4.65 4.75Q5.82 5.11 5.98 6.02L5.98 6.02L7.23 5.26L7.23 5.26Q7.18 4.46 6.55 4.07L6.55 4.07L6.55 4.07Q5.92 3.67 5.47 3.61L5.47 3.61L5.47 3.61Q5.01 3.54 4.16 3.59ZM11.79 3.55L10.90 3.81L7.56 12.51L8.26 12.74L9.35 9.88L12.95 9.88L14.13 12.78L15.42 12.11L11.79 3.55ZM11.09 5.33L12.37 8.59L9.87 8.59L11.09 5.33ZM20.79 3.52L18.79 7.16L16.62 3.51L15.39 4.22L17.68 8.22L17.68 12.79L19.08 11.81L19.07 7.52L21.16 3.73L20.79 3.52ZM24.99 3.61L22.62 3.60L21.74 4.57L21.73 12.48L21.73 12.48Q23.45 12.84 24.48 12.76L24.48 12.76L24.48 12.76Q25.52 12.67 26.29 12.11L26.29 12.11L26.29 12.11Q27.07 11.55 27.47 10.75L27.47 10.75L27.47 10.75Q27.86 9.95 27.64 8.95L27.64 8.95L27.64 8.95Q27.43 7.95 26.68 7.56L26.68 7.56L26.68 7.56Q25.93 7.17 25.40 7.21L25.40 7.21L25.40 7.21Q26.84 6.45 26.84 5.14L26.84 5.14L26.84 5.14Q26.85 3.84 24.99 3.61L24.99 3.61ZM23.06 4.85L23.06 4.85Q25.45 4.66 25.64 5.70L25.64 5.70L25.64 5.70Q25.83 6.74 24.80 7.10L24.80 7.10L24.80 7.10Q23.91 7.03 23.06 7.20L23.06 7.20L23.06 4.85ZM24.92 8.22L24.92 8.22L24.92 8.22Q25.79 8.35 26.39 9.05L26.39 9.05L26.39 9.05Q26.99 9.75 26.69 10.55L26.69 10.55L26.69 10.55Q26.39 11.35 25.58 11.49L25.58 11.49L25.58 11.49Q24.77 11.63 23.07 11.22L23.07 11.22L23.08 8.31L23.08 8.31Q24.04 8.08 24.92 8.22ZM29.33 3.67L28.34 4.48L28.34 12.71L33.07 12.70L34.00 11.15L34.00 11.15Q32.98 11.64 29.59 11.47L29.59 11.47L29.59 8.38L31.96 8.38L32.70 7.25L29.63 7.25L29.63 4.79L32.80 4.79L33.65 3.66L29.33 3.67ZM35.72 3.47L34.34 4.06L34.34 12.17L34.34 12.17Q34.33 12.54 34.19 12.69L34.19 12.69L38.52 12.68L39.65 11.12L39.65 11.12Q39.17 11.46 35.69 11.45L35.69 11.45L35.70 3.49L35.72 3.47Z"></path></g></svg>